<?xml version="1.0" ?><!DOCTYPE svg  PUBLIC '-//W3C//DTD SVG 1.1//EN'  'http://www.w3.org/Graphics/SVG/1.1/DTD/svg11.dtd'><svg enable-background="new 0 0 26 26" id="Слой_1" version="1.1" viewBox="0 0 26 26" xml:space="preserve" xmlns="http://www.w3.org/2000/svg" xmlns:xlink="http://www.w3.org/1999/xlink"><path d="M17.3105469,5.4951172V5.2109375c0-0.4140625-0.3359375-0.75-0.75-0.75H1.7490234  c-0.4140625,0-0.75,0.3359375-0.75,0.75v13.578125c0,0.4140625,0.3359375,0.75,0.75,0.75h3.0946045  c0.3288574,1.1506348,1.3780518,2,2.6329346,2s2.3040771-0.8493652,2.6329346-2h6.4510498h1.2567139  c0.3288574,1.1506348,1.3780518,2,2.6329346,2s2.3040771-0.8493652,2.6329346-2h0.9940186  c0.0308228,0,0.0570679-0.0139771,0.0869141-0.0175781c0.0298462,0.0036011,0.0560913,0.0175781,0.0869141,0.0175781  c0.4140625,0,0.75-0.3359375,0.75-0.75v-5.7397461C25.0009766,9.0928345,21.6141357,5.8380127,17.3105469,5.4951172z   M23.4721069,12.5493164h-2.8168335c-0.71875-0.1967773-0.8642578-1.4838867-0.8642578-3.4882813V7.6651001  C21.835083,8.6127319,23.2741699,10.4281616,23.4721069,12.5493164z M18.7910156,7.2894287v1.7716064  c0,2.1738281,0.1298828,4.1518555,1.7041016,4.4780273c0.0332031,0.0068359,0.0673828,0.0102539,0.1015625,0.0102539h2.9042969  v4.4897461h-0.4178467c-0.3288574-1.1506348-1.3780518-2-2.6329346-2s-2.3040771,0.8493652-2.6329346,2h-1.2567139h-6.4510498  C9.99823,17.6497803,9.8059692,17.2982788,9.5479736,17h7.0125732c0.201355,0,0.3722534-0.1203003,0.4515381-0.291626  c0.177063-0.1372681,0.2984619-0.3421631,0.2984619-0.583374V6.9979858  C17.8234863,7.0465698,18.3175659,7.1478882,18.7910156,7.2894287z M15.8105469,16H2.4990234V5.9609375h13.3115234V16z   M2.4990234,17h2.9061279c-0.2579956,0.2982788-0.4502563,0.6497803-0.5615234,1.0390625H2.4990234V17z M7.4765625,20.0390625  c-0.6894531,0-1.25-0.5605469-1.25-1.25s0.5605469-1.25,1.25-1.25c0.6885986,0,1.2481689,0.5593262,1.2495117,1.2475586  c0,0.0008545-0.0004883,0.0015869-0.0004883,0.0024414s0.0004883,0.0015869,0.0004883,0.0024414  C8.7247314,19.4797363,8.1651611,20.0390625,7.4765625,20.0390625z M20.4501953,20.0390625c-0.6894531,0-1.25-0.5605469-1.25-1.25  s0.5605469-1.25,1.25-1.25s1.25,0.5605469,1.25,1.25S21.1396484,20.0390625,20.4501953,20.0390625z" fill="#1D1D1B"/></svg>