<svg xmlns="http://www.w3.org/2000/svg" viewBox="0 0 111.59 13.54"><defs><style>.a{fill:#333;}.b{fill:#62b552;}</style></defs><title>powered-by-verify</title><path class="a" d="M10,23c0-.75,0-1.35,0-1.9h.94l.05,1h0A2.3,2.3,0,0,1,13,21c1.4,0,2.46,1.19,2.46,2.95C15.47,26,14.19,27,12.83,27A2.05,2.05,0,0,1,11,26.11h0v3.15H10Zm1,1.54a2.74,2.74,0,0,0,0,.43,1.63,1.63,0,0,0,1.59,1.24c1.11,0,1.76-.91,1.76-2.24,0-1.17-.61-2.16-1.73-2.16a1.67,1.67,0,0,0-1.59,1.31,1.49,1.49,0,0,0-.07.43Z" transform="translate(-9.93 -16)"/><path class="a" d="M22.05,23.94A2.84,2.84,0,0,1,19.16,27a2.76,2.76,0,0,1-2.78-3A2.83,2.83,0,0,1,19.26,21,2.74,2.74,0,0,1,22.05,23.94Zm-4.6,0c0,1.28.73,2.24,1.76,2.24S21,25.28,21,24c0-1-.49-2.23-1.73-2.23S17.45,22.89,17.45,24Z" transform="translate(-9.93 -16)"/><path class="a" d="M23.73,21.08l.76,3c.17.65.33,1.25.43,1.85h0c.13-.59.32-1.21.52-1.84l.94-3h.89l.9,2.9c.22.7.38,1.31.52,1.9h0A17,17,0,0,1,29.21,24L30,21.08h1l-1.87,5.8h-1l-.89-2.76c-.2-.65-.37-1.23-.52-1.91h0a15.86,15.86,0,0,1-.53,1.92l-.93,2.75h-1l-1.75-5.8Z" transform="translate(-9.93 -16)"/><path class="a" d="M32.6,24.17a1.87,1.87,0,0,0,2,2,3.75,3.75,0,0,0,1.6-.3l.18.76a4.8,4.8,0,0,1-1.93.36,2.69,2.69,0,0,1-2.85-2.93c0-1.75,1-3.13,2.72-3.13a2.46,2.46,0,0,1,2.4,2.73,4,4,0,0,1,0,.49Zm3.1-.75a1.51,1.51,0,0,0-1.46-1.72,1.75,1.75,0,0,0-1.62,1.72Z" transform="translate(-9.93 -16)"/><path class="a" d="M38,22.89c0-.68,0-1.27-.05-1.81h.92l0,1.14H39A1.74,1.74,0,0,1,40.6,21a1.39,1.39,0,0,1,.3,0v1a1.88,1.88,0,0,0-.36,0,1.48,1.48,0,0,0-1.42,1.36,3.37,3.37,0,0,0,0,.49v3.09H38Z" transform="translate(-9.93 -16)"/><path class="a" d="M42.42,24.17a1.86,1.86,0,0,0,2,2,3.8,3.8,0,0,0,1.61-.3l.18.76a4.84,4.84,0,0,1-1.93.36,2.7,2.7,0,0,1-2.86-2.93c0-1.75,1-3.13,2.73-3.13a2.46,2.46,0,0,1,2.39,2.73,4.49,4.49,0,0,1,0,.49Zm3.1-.75a1.51,1.51,0,0,0-1.47-1.72,1.76,1.76,0,0,0-1.62,1.72Z" transform="translate(-9.93 -16)"/><path class="a" d="M52.86,18.37v7c0,.51,0,1.1,0,1.49H52l-.05-1h0a2.16,2.16,0,0,1-2,1.14c-1.41,0-2.49-1.19-2.49-2.95C47.41,22.14,48.61,21,50,21a1.94,1.94,0,0,1,1.75.89h0V18.37ZM51.8,23.44a1.65,1.65,0,0,0,0-.44,1.54,1.54,0,0,0-1.52-1.22c-1.09,0-1.74,1-1.74,2.24s.58,2.15,1.72,2.15a1.58,1.58,0,0,0,1.54-1.26,1.71,1.71,0,0,0,0-.46Z" transform="translate(-9.93 -16)"/><path class="a" d="M57.11,26.88c0-.39,0-1,0-1.49v-7h1V22h0a2.18,2.18,0,0,1,2-1.07c1.44,0,2.46,1.2,2.45,3,0,2.08-1.31,3.11-2.6,3.11a2.1,2.1,0,0,1-1.95-1.09h0l0,.95Zm1.09-2.32a1.58,1.58,0,0,0,0,.38,1.63,1.63,0,0,0,1.58,1.24c1.1,0,1.76-.9,1.76-2.23,0-1.17-.6-2.16-1.72-2.16a1.69,1.69,0,0,0-1.61,1.29,2.46,2.46,0,0,0-.06.44Z" transform="translate(-9.93 -16)"/><path class="a" d="M64.28,21.08l1.28,3.43c.13.38.27.84.37,1.19h0c.11-.35.23-.79.37-1.21l1.16-3.41h1.11L67,25.22c-.76,2-1.27,3-2,3.63a2.92,2.92,0,0,1-1.3.69l-.26-.89a2.82,2.82,0,0,0,.92-.52A3.17,3.17,0,0,0,65.27,27a.69.69,0,0,0,.08-.25.85.85,0,0,0-.07-.28l-2.15-5.35Z" transform="translate(-9.93 -16)"/><path class="b" d="M115.85,28.93c-.08,0-.15-.2-.15-.38,0-.6.08-.68.63-.62s1-.24,1.38-1.24l.28-.77L116.8,23c-.67-1.6-1.2-3-1.21-3.05s.19-.15.61-.15h.62l.87,2.21a18.67,18.67,0,0,0,.93,2.21,22.79,22.79,0,0,0,.88-2.17l.83-2.19.59,0c.35,0,.59,0,.59.08,0,.24-3.12,8.07-3.34,8.36a1.94,1.94,0,0,1-1.6.7A3.1,3.1,0,0,1,115.85,28.93Z" transform="translate(-9.93 -16)"/><path class="b" d="M73.59,25.18,71.5,23.09l.56-.55L72.6,22l2.11,2.11,2.09,2.09-.55.54c-.3.3-.54.55-.56.55Z" transform="translate(-9.93 -16)"/><path class="b" d="M77.77,25.18l-2.09-2.09.56-.55.55-.56,1.54,1.55,1.55,1.53,3.91-3.91,3.9-3.93.54.52a2.23,2.23,0,0,1,.52.64c0,.12-8.71,8.89-8.83,8.89S78.92,26.33,77.77,25.18Z" transform="translate(-9.93 -16)"/><path class="b" d="M99.66,26a3.6,3.6,0,0,1-.93-.42,2.15,2.15,0,0,1-1-1.11A2.6,2.6,0,0,1,97.35,23,3,3,0,0,1,98,20.86a2.94,2.94,0,0,1,2.42-1.14c1.77,0,2.71.92,3,2.88l.08.6H101a9.45,9.45,0,0,0-2.45.12,1.71,1.71,0,0,0,.19.5,2,2,0,0,0,3.13.7l.54-.4.39.3c.34.26.39.34.27.54a3.32,3.32,0,0,1-1.74,1A4.06,4.06,0,0,1,99.66,26Zm2.45-4a1.61,1.61,0,0,0-.87-1.15,1.91,1.91,0,0,0-2.6,1l-.12.31h1.8C102,22.27,102.11,22.25,102.11,22.08Z" transform="translate(-9.93 -16)"/><path class="b" d="M92,23.09c-.63-1.54-1.16-2.9-1.2-3s0-.24.57-.24H92l.92,2.28.9,2.28L94.33,23c.3-.79.68-1.83.86-2.28l.32-.85h.57c.39,0,.57.05.57.15s-.52,1.42-1.14,3l-1.12,2.85-.65,0-.64,0Z" transform="translate(-9.93 -16)"/><path class="b" d="M104.78,23.21c0-1.46,0-2.82-.07-3l-.07-.36h.53c.5,0,.53,0,.6.36l.08.36.25-.23a2.35,2.35,0,0,1,1.6-.6h.6l-.08.36a5.62,5.62,0,0,0-.07.56c0,.16-.1.19-.57.19a1.47,1.47,0,0,0-1.46.93,5.48,5.48,0,0,0-.27,2.29l0,1.82h-1Z" transform="translate(-9.93 -16)"/><path class="b" d="M109.31,22.85v-3h1.17v6h-1.17Z" transform="translate(-9.93 -16)"/><path class="b" d="M112.8,23.32V20.76h-1.28v-.93h1.28V19c0-2.09.67-3,2.17-3,.78,0,.9.1.79.69s-.08.47-.47.4c-1-.18-1.33.25-1.33,1.76v1h1.39v.93H114v5.11H112.8Z" transform="translate(-9.93 -16)"/><path class="b" d="M79.36,22.59a2.45,2.45,0,0,1-.48-.61c0-.07,1-1.16,2.32-2.44l2.32-2.31.53.51a3.59,3.59,0,0,1,.52.58c0,.05-4.67,4.79-4.69,4.75S79.64,22.84,79.36,22.59Z" transform="translate(-9.93 -16)"/><path class="b" d="M109.38,18.15a.81.81,0,0,1-.16-.95c.13-.27.24-.34.64-.36s.51,0,.66.23a.75.75,0,0,1,0,1A.88.88,0,0,1,109.38,18.15Z" transform="translate(-9.93 -16)"/></svg>