<!DOCTYPE svg PUBLIC "-//W3C//DTD SVG 20010904//EN" "http://www.w3.org/TR/2001/REC-SVG-20010904/DTD/svg10.dtd">
<svg version="1.0" xmlns="http://www.w3.org/2000/svg" width="600px" height="200px" viewBox="0 0 6000 2000" preserveAspectRatio="xMidYMid meet">
<g id="layer1" fill="#62b552" stroke="none">
 <path d="M4493 1583 c-7 -2 -13 -17 -13 -33 0 -51 7 -58 54 -53 57 7 88 -21 119 -107 l24 -66 -103 -249 c-57 -138 -103 -256 -104 -262 0 -9 17 -13 53 -13 l53 0 75 190 c40 105 77 190 80 190 3 0 38 -84 76 -187 l71 -188 51 -3 c30 -2 51 1 51 7 0 21 -269 695 -288 720 -27 38 -80 61 -137 60 -27 0 -56 -3 -62 -6z"/>
 <path d="M855 1260 l-180 -180 48 -47 47 -48 181 181 180 180 -47 47 c-26 26 -47 47 -48 47 -1 0 -82 -81 -181 -180z"/>
 <path d="M1215 1260 l-180 -180 48 -47 47 -48 133 133 133 132 337 -337 336 -338 46 45 c25 24 45 49 45 55 0 10 -750 765 -760 765 -3 0 -86 -81 -185 -180z"/>
 <path d="M3099 1333 c-15 -2 -51 -18 -80 -36 -44 -26 -60 -44 -86 -95 -28 -53 -33 -75 -33 -130 0 -86 13 -132 53 -184 48 -63 122 -98 208 -98 152 0 233 79 254 248 l7 52 -211 0 c-141 0 -211 3 -211 10 0 6 7 25 16 43 56 112 170 137 270 60 l46 -34 34 26 c29 22 33 29 23 46 -16 30 -94 76 -150 88 -49 11 -89 12 -140 4z m211 -340 c0 -32 -40 -84 -75 -99 -92 -38 -193 2 -224 89 l-10 27 155 0 c140 0 154 -2 154 -17z"/>
 <path d="M2436 1080 c-54 -132 -100 -249 -103 -260 -5 -18 0 -20 49 -20 l54 0 79 196 78 196 47 -123 c26 -68 59 -157 74 -196 l28 -73 49 0 c33 0 49 4 49 13 -1 6 -45 122 -98 257 l-97 245 -56 3 -55 3 -98 -241z"/>
 <path d="M3540 1091 c0 -126 -3 -243 -6 -260 l-6 -31 45 0 c43 0 46 2 52 31 l7 31 21 -20 c38 -34 85 -52 138 -52 l52 0 -7 31 c-3 17 -6 39 -6 48 0 14 -9 17 -49 17 -60 -1 -97 23 -126 80 -16 32 -20 66 -23 197 l-4 157 -44 0 -44 0 0 -229z"/>
 <path d="M3930 1060 l0 -260 50 0 50 0 0 260 0 260 -50 0 -50 0 0 -260z"/>
 <path d="M4230 1100 l0 -220 -55 0 -55 0 0 -40 0 -40 55 0 55 0 0 -70 c0 -180 58 -260 187 -260 67 0 77 9 68 59 -7 41 -7 41 -41 35 -86 -16 -114 21 -114 151 l0 85 60 0 60 0 0 40 0 40 -60 0 -60 0 0 220 0 220 -50 0 -50 0 0 -220z"/>
 <path d="M1352 1037 c-23 -23 -42 -47 -42 -52 0 -6 90 -100 200 -210 l200 -199 45 44 c25 24 45 47 45 50 0 4 -402 412 -404 409 -1 0 -20 -20 -44 -42z"/>
 <path d="M3936 655 c-23 -24 -28 -52 -14 -82 11 -23 21 -29 55 -31 33 -2 44 1 57 20 22 31 20 64 -4 88 -24 24 -72 26 -94 5z"/>
 </g>

</svg>